<?xml version="1.0" encoding="utf-8"?>
<!DOCTYPE svg PUBLIC "-//W3C//DTD SVG 1.1//EN" "http://www.w3.org/Graphics/SVG/1.1/DTD/svg11.dtd">
<svg version="1.1" id="Layer_1" xmlns="http://www.w3.org/2000/svg" xmlns:xlink="http://www.w3.org/1999/xlink" viewBox="0 0 232.102 124.696" enable-background="new 0 0 232.102 124.696"
	 xml:space="preserve">
<g>
	<path fill="#FFFFFF" d="M47.617,38.438c-0.183,3.959-1.25,7.455-3.203,10.488c-1.953,3.034-4.694,5.385-8.223,7.051
		c-3.529,1.667-7.559,2.5-12.09,2.5c-7.475,0-13.359-2.435-17.656-7.305C2.148,46.303,0,39.428,0,30.547v-2.813
		c0-5.572,0.97-10.449,2.91-14.629c1.939-4.18,4.732-7.408,8.379-9.688C14.935,1.14,19.153,0,23.945,0
		c6.9,0,12.447,1.816,16.641,5.449c4.192,3.633,6.575,8.64,7.148,15.02H34.063c-0.104-3.463-0.977-5.95-2.617-7.461
		c-1.641-1.51-4.141-2.266-7.5-2.266c-3.412,0-5.912,1.276-7.5,3.828c-1.589,2.553-2.422,6.628-2.5,12.227v4.023
		c0,6.068,0.762,10.404,2.285,13.008c1.523,2.604,4.146,3.906,7.871,3.906c3.15,0,5.56-0.742,7.227-2.227
		c1.666-1.484,2.552-3.841,2.656-7.07H47.617z"/>
	<path fill="#FFFFFF" d="M122.305,38.398v19.297h-13.711V0.82h22.695c4.349,0,8.196,0.801,11.543,2.402
		c3.346,1.602,5.938,3.881,7.773,6.836c1.836,2.956,2.754,6.309,2.754,10.059c0,5.547-1.986,9.98-5.957,13.301
		c-3.972,3.32-9.421,4.98-16.348,4.98H122.305z M122.305,27.813h8.984c2.656,0,4.681-0.664,6.074-1.992
		c1.393-1.328,2.09-3.203,2.09-5.625c0-2.656-0.717-4.778-2.148-6.367c-1.433-1.588-3.386-2.396-5.859-2.422h-9.141V27.813z"/>
	<path fill="#FFFFFF" d="M18.313,114.149H42.18v10.547H4.602V67.821h13.711V114.149z"/>
	<path fill="#FFFFFF" d="M83.234,100.556H61.672v13.594h25.469v10.547h-39.18V67.821h39.258v10.586H61.672v11.992h21.563V100.556z"
		/>
	<path fill="#FFFFFF" d="M111.297,124.696h15l19.141-56.875h-15.313l-11.328,41.406L83.438,0.82H70.547L49.688,57.695h14.648
		l3.281-10.625h18.789L111.297,124.696z M70.898,36.484l6.094-19.727l6.133,19.727H70.898z"/>
	<path fill="#FFFFFF" d="M172.953,114.071h-18.789l-3.281,10.625h-14.648l20.859-56.875h12.891L191,124.696h-14.727L172.953,114.071
		z M157.445,103.485h12.227l-6.133-19.727L157.445,103.485z"/>
	<path fill="#FFFFFF" d="M232.102,78.407h-17.07v46.289H201.32V78.407h-16.758V67.821h47.539V78.407z"/>
</g>
</svg>
